<svg width="108" height="116" viewBox="0 0 108 116" fill="none" xmlns="http://www.w3.org/2000/svg">
<path d="M71.2992 115.597H36.838C34.0861 115.597 30.5837 115.284 28.2696 112.908C26.018 110.593 26.0805 107.716 26.1431 105.778V105.563C26.1431 102.22 24.4333 99.1433 21.8337 97.0405C8.51716 86.2689 0 69.8025 0 54.0544C0 37.6055 7.38011 22.2198 20.2015 11.9002C33.0228 1.58054 49.8469 -2.29712 66.2957 1.33037C81.9315 4.77025 95.4409 15.215 102.446 29.2872C115.179 54.9307 104.459 82.5562 85.833 97.4933C83.5453 99.328 82.0566 102.032 82.0566 104.965C82.1192 106.778 82.1817 110.093 79.6174 112.72C77.6786 114.596 74.9267 115.597 71.2992 115.597ZM35.4542 106.098C35.4762 106.12 35.4872 106.153 35.5183 106.154C35.8265 106.16 36.2456 106.215 36.7754 106.215H71.2992C71.5652 106.215 71.7972 106.204 71.9953 106.186C72.3614 106.153 72.6126 105.832 72.6126 105.465V97.5845C72.6126 95.9584 73.4882 94.3948 74.8642 93.5817C93.377 82.3865 105.635 56.8063 93.9399 33.3525C88.1859 21.782 77.0532 13.2136 64.1693 10.3991C50.5348 7.39707 36.5878 10.5868 25.9555 19.1552C15.3231 27.7236 9.2564 40.4199 9.2564 54.0544C9.2564 71.4414 21.2647 86.4518 33.1479 93.6442C34.5864 94.5199 35.3995 96.0209 35.3995 97.647V106.034C35.3995 106.065 35.4322 106.076 35.4542 106.098Z" fill="#292D32"/>
</svg>
