<svg width="34" height="34" viewBox="0 0 34 34" fill="none" xmlns="http://www.w3.org/2000/svg">
<path d="M25.754 3.62361L25.6353 10.05C25.6184 10.9317 26.1781 12.1017 26.8902 12.6273L31.0954 15.8151C33.7914 17.8498 33.3505 20.3424 30.1289 21.3597L24.652 23.0723C23.7364 23.3606 22.7699 24.361 22.5325 25.2936L21.2269 30.2786C20.1926 34.2125 17.6151 34.6025 15.4786 31.1434L12.4944 26.3109C11.9518 25.4292 10.6631 24.7679 9.64578 24.8188L3.98251 25.107C-0.070003 25.3105 -1.22304 22.9706 1.42212 19.8846L4.77939 15.9846C5.40677 15.2555 5.69501 13.899 5.40675 12.9834L3.69427 7.50656C2.69386 4.28489 4.49119 2.50452 7.6959 3.5558L12.698 5.20054C13.5458 5.47184 14.8175 5.28531 15.5297 4.75967L20.7521 0.995409C23.5668 -1.03932 25.8218 0.147604 25.754 3.62361Z" fill="white"/>
<path opacity="0.4" d="M32.791 31.3128L27.6533 26.1751C27.1616 25.6834 26.3477 25.6834 25.8559 26.1751C25.3642 26.6668 25.3642 27.4807 25.8559 27.9725L30.9937 33.1102C31.248 33.3645 31.5702 33.4832 31.8923 33.4832C32.2145 33.4832 32.5367 33.3645 32.791 33.1102C33.2827 32.6184 33.2827 31.8045 32.791 31.3128Z" fill="white"/>
</svg>
