<svg width="33" height="37" viewBox="0 0 33 37" fill="none" xmlns="http://www.w3.org/2000/svg">
<path d="M32.2704 5.76911V26.2784C32.2704 29.8721 29.3483 32.7942 25.7547 32.7942C22.1791 32.7942 19.2389 29.8721 19.2389 26.2784C19.2389 22.7029 22.1791 19.7808 25.7547 19.7808C27.2792 19.7808 28.6405 20.3071 29.7476 21.1783V10.3792L13.0316 15.1344V29.7813C13.0316 33.375 10.0913 36.2971 6.51577 36.2971C2.9221 36.2971 0 33.375 0 29.7813C0 26.2058 2.9221 23.2837 6.51577 23.2837C8.02223 23.2837 9.38346 23.81 10.4906 24.6631V8.61864C10.4906 5.95061 12.1059 3.88153 14.6651 3.19184L25.1557 0.324164C27.2792 -0.25663 29.0761 -0.0569822 30.3466 0.923109C31.6352 1.88505 32.2704 3.51853 32.2704 5.76911Z" fill="white"/>
</svg>
