<svg width="33" height="33" viewBox="0 0 33 33" fill="none" xmlns="http://www.w3.org/2000/svg">
<path opacity="0.6" d="M19.6808 22.9609C19.6808 25.8638 18.4179 28.4879 16.4007 30.2756C14.6622 31.8501 12.3661 32.8013 9.8404 32.8013C4.41178 32.8013 0 28.3895 0 22.9609C0 18.4343 3.08332 14.5966 7.24909 13.4649C8.38074 16.3187 10.808 18.5163 13.8094 19.3364C14.6294 19.566 15.4986 19.6808 16.4007 19.6808C17.3027 19.6808 18.1719 19.566 18.992 19.3364C19.4348 20.4516 19.6808 21.6817 19.6808 22.9609Z" fill="white"/>
<path d="M26.241 9.8404C26.241 11.1196 25.995 12.3497 25.5522 13.4649C24.4206 16.3187 21.9933 18.5163 18.992 19.3364C18.1719 19.566 17.3027 19.6808 16.4007 19.6808C15.4986 19.6808 14.6294 19.566 13.8093 19.3364C10.808 18.5163 8.38073 16.3187 7.24908 13.4649C6.80627 12.3497 6.56026 11.1196 6.56026 9.8404C6.56026 4.41178 10.972 0 16.4007 0C21.8293 0 26.241 4.41178 26.241 9.8404Z" fill="white"/>
<path opacity="0.4" d="M32.8013 22.9609C32.8013 28.3895 28.3895 32.8013 22.9609 32.8013C20.4352 32.8013 18.1391 31.8501 16.4007 30.2756C18.4179 28.4879 19.6808 25.8638 19.6808 22.9609C19.6808 21.6817 19.4348 20.4516 18.992 19.3364C21.9933 18.5163 24.4206 16.3187 25.5522 13.4649C29.718 14.5966 32.8013 18.4343 32.8013 22.9609Z" fill="white"/>
</svg>
